# xmcd
#
# Track frame offsets: 
#        150
#        17871
#        39354
#        59468
#        75852
#        92988
#        112093
#        122891
#        140779
#        154823
#        173631
#
# Disc length: 2578 seconds
#
# Revision: 0
# Processed by: cddbd v1.5.2PL0 Copyright (c) Steve Scherf et al.
# Submitted via: ExactAudioCopyFreeDBPlugin 1.0
#
DISCID=900a100b
DTITLE=Noel McCay - Sketches of South Central Texas
DYEAR=2014
DGENRE=Country
TTITLE0=It Never Rains
TTITLE1=Texas Heart, Mexican Soul
TTITLE2=Beatitudes of Heat
TTITLE3=Change the Oil
TTITLE4=El Coyote
TTITLE5=Black Eye
TTITLE6=Tres Hombres
TTITLE7=Ghost on the Coast
TTITLE8=Mi San Antonio
TTITLE9=Friday Night
TTITLE10=When the Rain Finally Came
EXTD=
EXTT0=
EXTT1=
EXTT2=
EXTT3=
EXTT4=
EXTT5=
EXTT6=
EXTT7=
EXTT8=
EXTT9=
EXTT10=
PLAYORDER=
